<?xml version="1.0" encoding="utf-8" standalone="no"?>
<!DOCTYPE svg PUBLIC "-//W3C//DTD SVG 1.1//EN"
  "http://www.w3.org/Graphics/SVG/1.1/DTD/svg11.dtd">
<svg xmlns:xlink="http://www.w3.org/1999/xlink" width="504pt" height="360pt" viewBox="0 0 504 360" xmlns="http://www.w3.org/2000/svg" version="1.1">
 <metadata>
  <rdf:RDF xmlns:dc="http://purl.org/dc/elements/1.1/" xmlns:cc="http://creativecommons.org/ns#" xmlns:rdf="http://www.w3.org/1999/02/22-rdf-syntax-ns#">
   <cc:Work>
    <dc:type rdf:resource="http://purl.org/dc/dcmitype/StillImage"/>
    <dc:date>2023-09-18T16:27:32.196322</dc:date>
    <dc:format>image/svg+xml</dc:format>
    <dc:creator>
     <cc:Agent>
      <dc:title>Matplotlib v3.7.2, https://matplotlib.org/</dc:title>
     </cc:Agent>
    </dc:creator>
   </cc:Work>
  </rdf:RDF>
 </metadata>
 <defs>
  <style type="text/css">*{stroke-linejoin: round; stroke-linecap: butt}</style>
 </defs>
 <g id="figure_1">
  <g id="patch_1">
   <path d="M 0 360 
L 504 360 
L 504 0 
L 0 0 
z
" style="fill: #ffffff"/>
  </g>
  <g id="axes_1">
   <g id="patch_2">
    <path d="M 258.3 70.92 
C 248.610101 70.92 238.961873 72.190213 229.602148 74.698143 
C 220.242424 77.206073 211.251707 80.93015 202.860007 85.775099 
L 258.3 181.8 
C 258.3 181.8 258.3 181.8 258.3 181.8 
C 258.3 181.8 258.3 181.8 258.3 181.8 
z
" style="fill: #fbe8e8; stroke: #000000; stroke-linejoin: miter"/>
   </g>
   <g id="patch_3">
    <path d="M 202.860007 85.775099 
C 194.468308 90.620048 186.747804 96.544198 179.896009 103.395991 
C 173.044215 110.247784 167.120063 117.968287 162.275112 126.359985 
L 258.3 181.8 
C 258.3 181.8 258.3 181.8 258.3 181.8 
C 258.3 181.8 258.3 181.8 258.3 181.8 
z
" style="fill: #c6dff1; stroke: #000000; stroke-linejoin: miter"/>
   </g>
   <g id="patch_4">
    <path d="M 162.275112 126.359985 
C 157.430161 134.751683 153.706082 143.7424 151.19815 153.102123 
C 148.690218 162.461847 147.420002 172.110075 147.42 181.799974 
L 258.3 181.8 
C 258.3 181.8 258.3 181.8 258.3 181.8 
C 258.3 181.8 258.3 181.8 258.3 181.8 
z
" style="fill: #f0f7fb; stroke: #000000; stroke-linejoin: miter"/>
   </g>
   <g id="patch_5">
    <path d="M 147.42 181.799974 
C 147.419998 191.489874 148.690209 201.138102 151.198137 210.497826 
C 153.706065 219.857551 157.430139 228.848269 162.275086 237.23997 
L 258.3 181.8 
C 258.3 181.8 258.3 181.8 258.3 181.8 
C 258.3 181.8 258.3 181.8 258.3 181.8 
z
" style="fill: #c8e0f1; stroke: #000000; stroke-linejoin: miter"/>
   </g>
   <g id="patch_6">
    <path d="M 162.275086 237.23997 
C 167.120033 245.631671 173.044181 253.352176 179.895973 260.203972 
C 186.747764 267.055768 194.468265 272.979922 202.859963 277.824875 
L 258.3 181.8 
C 258.3 181.8 258.3 181.8 258.3 181.8 
C 258.3 181.8 258.3 181.8 258.3 181.8 
z
" style="fill: #808080; stroke: #000000; stroke-linejoin: miter"/>
   </g>
   <g id="patch_7">
    <path d="M 202.859963 277.824875 
C 211.25166 282.669828 220.242375 286.393909 229.602098 288.901843 
C 238.961821 291.409778 248.610049 292.679995 258.299948 292.68 
L 258.3 181.8 
C 258.3 181.8 258.3 181.8 258.3 181.8 
C 258.3 181.8 258.3 181.8 258.3 181.8 
z
" style="fill: #fefafa; stroke: #000000; stroke-linejoin: miter"/>
   </g>
   <g id="patch_8">
    <path d="M 258.299948 292.68 
C 264.754775 292.680003 271.197292 292.116359 277.554056 290.995493 
C 283.910821 289.874627 290.157586 288.200815 296.22314 285.993137 
L 258.3 181.8 
C 258.3 181.8 258.3 181.8 258.3 181.8 
C 258.3 181.8 258.3 181.8 258.3 181.8 
z
" style="fill: #808080; stroke: #000000; stroke-linejoin: miter"/>
   </g>
   <g id="patch_9">
    <path d="M 296.22314 285.993137 
C 302.288695 283.785459 308.149903 281.052337 313.739949 277.824926 
C 319.329995 274.597516 324.627556 270.888128 329.572243 266.739048 
L 258.3 181.8 
C 258.3 181.8 258.3 181.8 258.3 181.8 
C 258.3 181.8 258.3 181.8 258.3 181.8 
z
" style="fill: #fffefe; stroke: #000000; stroke-linejoin: miter"/>
   </g>
   <g id="patch_10">
    <path d="M 329.572243 266.739048 
C 334.51693 262.589967 339.089881 258.017021 343.238967 253.072339 
C 347.388052 248.127657 351.097447 242.8301 354.324863 237.240058 
L 258.3 181.8 
C 258.3 181.8 258.3 181.8 258.3 181.8 
C 258.3 181.8 258.3 181.8 258.3 181.8 
z
" style="fill: #f9dede; stroke: #000000; stroke-linejoin: miter"/>
   </g>
   <g id="patch_11">
    <path d="M 354.324863 237.240058 
C 357.55228 231.650015 360.285409 225.78881 362.493094 219.723258 
C 364.700779 213.657706 366.374598 207.410943 367.495471 201.05418 
L 258.3 181.8 
C 258.3 181.8 258.3 181.8 258.3 181.8 
C 258.3 181.8 258.3 181.8 258.3 181.8 
z
" style="fill: #808080; stroke: #000000; stroke-linejoin: miter"/>
   </g>
   <g id="patch_12">
    <path d="M 367.495471 201.05418 
C 368.616344 194.697417 369.179996 188.254901 369.18 181.800074 
C 369.180004 175.345247 368.616362 168.90273 367.495497 162.545965 
L 258.3 181.8 
C 258.3 181.8 258.3 181.8 258.3 181.8 
C 258.3 181.8 258.3 181.8 258.3 181.8 
z
" style="fill: #fffefe; stroke: #000000; stroke-linejoin: miter"/>
   </g>
   <g id="patch_13">
    <path d="M 367.495497 162.545965 
C 366.374632 156.189201 364.700821 149.942436 362.493145 143.876881 
C 360.285468 137.811326 357.552347 131.950117 354.324937 126.36007 
L 258.3 181.8 
C 258.3 181.8 258.3 181.8 258.3 181.8 
C 258.3 181.8 258.3 181.8 258.3 181.8 
z
" style="fill: #c0dcef; stroke: #000000; stroke-linejoin: miter"/>
   </g>
   <g id="patch_14">
    <path d="M 354.324937 126.36007 
C 351.097528 120.770024 347.388141 115.472462 343.239062 110.527774 
C 339.089983 105.583086 334.517037 101.010134 329.572356 96.861048 
L 258.3 181.8 
C 258.3 181.8 258.3 181.8 258.3 181.8 
C 258.3 181.8 258.3 181.8 258.3 181.8 
z
" style="fill: #808080; stroke: #000000; stroke-linejoin: miter"/>
   </g>
   <g id="patch_15">
    <path d="M 329.572356 96.861048 
C 324.627675 92.711961 319.330118 89.002566 313.740077 85.775148 
C 308.150035 82.54773 302.288831 79.814599 296.223279 77.606913 
L 258.3 181.8 
C 258.3 181.8 258.3 181.8 258.3 181.8 
C 258.3 181.8 258.3 181.8 258.3 181.8 
z
" style="fill: #808080; stroke: #000000; stroke-linejoin: miter"/>
   </g>
   <g id="patch_16">
    <path d="M 296.223279 77.606913 
C 290.157728 75.399227 283.910965 73.725407 277.554202 72.604533 
C 271.197439 71.483658 264.754923 70.920006 258.300096 70.92 
L 258.3 181.8 
C 258.3 181.8 258.3 181.8 258.3 181.8 
C 258.3 181.8 258.3 181.8 258.3 181.8 
z
" style="fill: #808080; stroke: #000000; stroke-linejoin: miter"/>
   </g>
   <g id="matplotlib.axis_1"/>
   <g id="matplotlib.axis_2"/>
   <g id="text_1">
    <!-- L-Proline -->
    <g transform="translate(192.403613 66.195458) scale(0.08 -0.08)">
     <defs>
      <path id="DejaVuSans-4c" d="M 628 4666 
L 1259 4666 
L 1259 531 
L 3531 531 
L 3531 0 
L 628 0 
L 628 4666 
z
" transform="scale(0.015625)"/>
      <path id="DejaVuSans-2d" d="M 313 2009 
L 1997 2009 
L 1997 1497 
L 313 1497 
L 313 2009 
z
" transform="scale(0.015625)"/>
      <path id="DejaVuSans-50" d="M 1259 4147 
L 1259 2394 
L 2053 2394 
Q 2494 2394 2734 2622 
Q 2975 2850 2975 3272 
Q 2975 3691 2734 3919 
Q 2494 4147 2053 4147 
L 1259 4147 
z
M 628 4666 
L 2053 4666 
Q 2838 4666 3239 4311 
Q 3641 3956 3641 3272 
Q 3641 2581 3239 2228 
Q 2838 1875 2053 1875 
L 1259 1875 
L 1259 0 
L 628 0 
L 628 4666 
z
" transform="scale(0.015625)"/>
      <path id="DejaVuSans-72" d="M 2631 2963 
Q 2534 3019 2420 3045 
Q 2306 3072 2169 3072 
Q 1681 3072 1420 2755 
Q 1159 2438 1159 1844 
L 1159 0 
L 581 0 
L 581 3500 
L 1159 3500 
L 1159 2956 
Q 1341 3275 1631 3429 
Q 1922 3584 2338 3584 
Q 2397 3584 2469 3576 
Q 2541 3569 2628 3553 
L 2631 2963 
z
" transform="scale(0.015625)"/>
      <path id="DejaVuSans-6f" d="M 1959 3097 
Q 1497 3097 1228 2736 
Q 959 2375 959 1747 
Q 959 1119 1226 758 
Q 1494 397 1959 397 
Q 2419 397 2687 759 
Q 2956 1122 2956 1747 
Q 2956 2369 2687 2733 
Q 2419 3097 1959 3097 
z
M 1959 3584 
Q 2709 3584 3137 3096 
Q 3566 2609 3566 1747 
Q 3566 888 3137 398 
Q 2709 -91 1959 -91 
Q 1206 -91 779 398 
Q 353 888 353 1747 
Q 353 2609 779 3096 
Q 1206 3584 1959 3584 
z
" transform="scale(0.015625)"/>
      <path id="DejaVuSans-6c" d="M 603 4863 
L 1178 4863 
L 1178 0 
L 603 0 
L 603 4863 
z
" transform="scale(0.015625)"/>
      <path id="DejaVuSans-69" d="M 603 3500 
L 1178 3500 
L 1178 0 
L 603 0 
L 603 3500 
z
M 603 4863 
L 1178 4863 
L 1178 4134 
L 603 4134 
L 603 4863 
z
" transform="scale(0.015625)"/>
      <path id="DejaVuSans-6e" d="M 3513 2113 
L 3513 0 
L 2938 0 
L 2938 2094 
Q 2938 2591 2744 2837 
Q 2550 3084 2163 3084 
Q 1697 3084 1428 2787 
Q 1159 2491 1159 1978 
L 1159 0 
L 581 0 
L 581 3500 
L 1159 3500 
L 1159 2956 
Q 1366 3272 1645 3428 
Q 1925 3584 2291 3584 
Q 2894 3584 3203 3211 
Q 3513 2838 3513 2113 
z
" transform="scale(0.015625)"/>
      <path id="DejaVuSans-65" d="M 3597 1894 
L 3597 1613 
L 953 1613 
Q 991 1019 1311 708 
Q 1631 397 2203 397 
Q 2534 397 2845 478 
Q 3156 559 3463 722 
L 3463 178 
Q 3153 47 2828 -22 
Q 2503 -91 2169 -91 
Q 1331 -91 842 396 
Q 353 884 353 1716 
Q 353 2575 817 3079 
Q 1281 3584 2069 3584 
Q 2775 3584 3186 3129 
Q 3597 2675 3597 1894 
z
M 3022 2063 
Q 3016 2534 2758 2815 
Q 2500 3097 2075 3097 
Q 1594 3097 1305 2825 
Q 1016 2553 972 2059 
L 3022 2063 
z
" transform="scale(0.015625)"/>
     </defs>
     <use xlink:href="#DejaVuSans-4c"/>
     <use xlink:href="#DejaVuSans-2d" x="53.962891"/>
     <use xlink:href="#DejaVuSans-50" x="90.046875"/>
     <use xlink:href="#DejaVuSans-72" x="148.599609"/>
     <use xlink:href="#DejaVuSans-6f" x="187.462891"/>
     <use xlink:href="#DejaVuSans-6c" x="248.644531"/>
     <use xlink:href="#DejaVuSans-69" x="276.427734"/>
     <use xlink:href="#DejaVuSans-6e" x="304.210938"/>
     <use xlink:href="#DejaVuSans-65" x="367.589844"/>
    </g>
   </g>
   <g id="text_2">
    <!-- L-Glutamine -->
    <g transform="translate(123.02436 97.76309) scale(0.08 -0.08)">
     <defs>
      <path id="DejaVuSans-47" d="M 3809 666 
L 3809 1919 
L 2778 1919 
L 2778 2438 
L 4434 2438 
L 4434 434 
Q 4069 175 3628 42 
Q 3188 -91 2688 -91 
Q 1594 -91 976 548 
Q 359 1188 359 2328 
Q 359 3472 976 4111 
Q 1594 4750 2688 4750 
Q 3144 4750 3555 4637 
Q 3966 4525 4313 4306 
L 4313 3634 
Q 3963 3931 3569 4081 
Q 3175 4231 2741 4231 
Q 1884 4231 1454 3753 
Q 1025 3275 1025 2328 
Q 1025 1384 1454 906 
Q 1884 428 2741 428 
Q 3075 428 3337 486 
Q 3600 544 3809 666 
z
" transform="scale(0.015625)"/>
      <path id="DejaVuSans-75" d="M 544 1381 
L 544 3500 
L 1119 3500 
L 1119 1403 
Q 1119 906 1312 657 
Q 1506 409 1894 409 
Q 2359 409 2629 706 
Q 2900 1003 2900 1516 
L 2900 3500 
L 3475 3500 
L 3475 0 
L 2900 0 
L 2900 538 
Q 2691 219 2414 64 
Q 2138 -91 1772 -91 
Q 1169 -91 856 284 
Q 544 659 544 1381 
z
M 1991 3584 
L 1991 3584 
z
" transform="scale(0.015625)"/>
      <path id="DejaVuSans-74" d="M 1172 4494 
L 1172 3500 
L 2356 3500 
L 2356 3053 
L 1172 3053 
L 1172 1153 
Q 1172 725 1289 603 
Q 1406 481 1766 481 
L 2356 481 
L 2356 0 
L 1766 0 
Q 1100 0 847 248 
Q 594 497 594 1153 
L 594 3053 
L 172 3053 
L 172 3500 
L 594 3500 
L 594 4494 
L 1172 4494 
z
" transform="scale(0.015625)"/>
      <path id="DejaVuSans-61" d="M 2194 1759 
Q 1497 1759 1228 1600 
Q 959 1441 959 1056 
Q 959 750 1161 570 
Q 1363 391 1709 391 
Q 2188 391 2477 730 
Q 2766 1069 2766 1631 
L 2766 1759 
L 2194 1759 
z
M 3341 1997 
L 3341 0 
L 2766 0 
L 2766 531 
Q 2569 213 2275 61 
Q 1981 -91 1556 -91 
Q 1019 -91 701 211 
Q 384 513 384 1019 
Q 384 1609 779 1909 
Q 1175 2209 1959 2209 
L 2766 2209 
L 2766 2266 
Q 2766 2663 2505 2880 
Q 2244 3097 1772 3097 
Q 1472 3097 1187 3025 
Q 903 2953 641 2809 
L 641 3341 
Q 956 3463 1253 3523 
Q 1550 3584 1831 3584 
Q 2591 3584 2966 3190 
Q 3341 2797 3341 1997 
z
" transform="scale(0.015625)"/>
      <path id="DejaVuSans-6d" d="M 3328 2828 
Q 3544 3216 3844 3400 
Q 4144 3584 4550 3584 
Q 5097 3584 5394 3201 
Q 5691 2819 5691 2113 
L 5691 0 
L 5113 0 
L 5113 2094 
Q 5113 2597 4934 2840 
Q 4756 3084 4391 3084 
Q 3944 3084 3684 2787 
Q 3425 2491 3425 1978 
L 3425 0 
L 2847 0 
L 2847 2094 
Q 2847 2600 2669 2842 
Q 2491 3084 2119 3084 
Q 1678 3084 1418 2786 
Q 1159 2488 1159 1978 
L 1159 0 
L 581 0 
L 581 3500 
L 1159 3500 
L 1159 2956 
Q 1356 3278 1631 3431 
Q 1906 3584 2284 3584 
Q 2666 3584 2933 3390 
Q 3200 3197 3328 2828 
z
" transform="scale(0.015625)"/>
     </defs>
     <use xlink:href="#DejaVuSans-4c"/>
     <use xlink:href="#DejaVuSans-2d" x="53.962891"/>
     <use xlink:href="#DejaVuSans-47" x="93.671875"/>
     <use xlink:href="#DejaVuSans-6c" x="171.162109"/>
     <use xlink:href="#DejaVuSans-75" x="198.945312"/>
     <use xlink:href="#DejaVuSans-74" x="262.324219"/>
     <use xlink:href="#DejaVuSans-61" x="301.533203"/>
     <use xlink:href="#DejaVuSans-6d" x="362.8125"/>
     <use xlink:href="#DejaVuSans-69" x="460.224609"/>
     <use xlink:href="#DejaVuSans-6e" x="488.007812"/>
     <use xlink:href="#DejaVuSans-65" x="551.386719"/>
    </g>
   </g>
   <g id="text_3">
    <!-- L-Glutamic_acid -->
    <g transform="translate(76.447965 152.328586) scale(0.08 -0.08)">
     <defs>
      <path id="DejaVuSans-63" d="M 3122 3366 
L 3122 2828 
Q 2878 2963 2633 3030 
Q 2388 3097 2138 3097 
Q 1578 3097 1268 2742 
Q 959 2388 959 1747 
Q 959 1106 1268 751 
Q 1578 397 2138 397 
Q 2388 397 2633 464 
Q 2878 531 3122 666 
L 3122 134 
Q 2881 22 2623 -34 
Q 2366 -91 2075 -91 
Q 1284 -91 818 406 
Q 353 903 353 1747 
Q 353 2603 823 3093 
Q 1294 3584 2113 3584 
Q 2378 3584 2631 3529 
Q 2884 3475 3122 3366 
z
" transform="scale(0.015625)"/>
      <path id="DejaVuSans-5f" d="M 3263 -1063 
L 3263 -1509 
L -63 -1509 
L -63 -1063 
L 3263 -1063 
z
" transform="scale(0.015625)"/>
      <path id="DejaVuSans-64" d="M 2906 2969 
L 2906 4863 
L 3481 4863 
L 3481 0 
L 2906 0 
L 2906 525 
Q 2725 213 2448 61 
Q 2172 -91 1784 -91 
Q 1150 -91 751 415 
Q 353 922 353 1747 
Q 353 2572 751 3078 
Q 1150 3584 1784 3584 
Q 2172 3584 2448 3432 
Q 2725 3281 2906 2969 
z
M 947 1747 
Q 947 1113 1208 752 
Q 1469 391 1925 391 
Q 2381 391 2643 752 
Q 2906 1113 2906 1747 
Q 2906 2381 2643 2742 
Q 2381 3103 1925 3103 
Q 1469 3103 1208 2742 
Q 947 2381 947 1747 
z
" transform="scale(0.015625)"/>
     </defs>
     <use xlink:href="#DejaVuSans-4c"/>
     <use xlink:href="#DejaVuSans-2d" x="53.962891"/>
     <use xlink:href="#DejaVuSans-47" x="93.671875"/>
     <use xlink:href="#DejaVuSans-6c" x="171.162109"/>
     <use xlink:href="#DejaVuSans-75" x="198.945312"/>
     <use xlink:href="#DejaVuSans-74" x="262.324219"/>
     <use xlink:href="#DejaVuSans-61" x="301.533203"/>
     <use xlink:href="#DejaVuSans-6d" x="362.8125"/>
     <use xlink:href="#DejaVuSans-69" x="460.224609"/>
     <use xlink:href="#DejaVuSans-63" x="488.007812"/>
     <use xlink:href="#DejaVuSans-5f" x="542.988281"/>
     <use xlink:href="#DejaVuSans-61" x="592.988281"/>
     <use xlink:href="#DejaVuSans-63" x="654.267578"/>
     <use xlink:href="#DejaVuSans-69" x="709.248047"/>
     <use xlink:href="#DejaVuSans-64" x="737.03125"/>
    </g>
   </g>
   <g id="text_4">
    <!-- L-Aspartic_acid -->
    <g transform="translate(80.1942 215.463859) scale(0.08 -0.08)">
     <defs>
      <path id="DejaVuSans-41" d="M 2188 4044 
L 1331 1722 
L 3047 1722 
L 2188 4044 
z
M 1831 4666 
L 2547 4666 
L 4325 0 
L 3669 0 
L 3244 1197 
L 1141 1197 
L 716 0 
L 50 0 
L 1831 4666 
z
" transform="scale(0.015625)"/>
      <path id="DejaVuSans-73" d="M 2834 3397 
L 2834 2853 
Q 2591 2978 2328 3040 
Q 2066 3103 1784 3103 
Q 1356 3103 1142 2972 
Q 928 2841 928 2578 
Q 928 2378 1081 2264 
Q 1234 2150 1697 2047 
L 1894 2003 
Q 2506 1872 2764 1633 
Q 3022 1394 3022 966 
Q 3022 478 2636 193 
Q 2250 -91 1575 -91 
Q 1294 -91 989 -36 
Q 684 19 347 128 
L 347 722 
Q 666 556 975 473 
Q 1284 391 1588 391 
Q 1994 391 2212 530 
Q 2431 669 2431 922 
Q 2431 1156 2273 1281 
Q 2116 1406 1581 1522 
L 1381 1569 
Q 847 1681 609 1914 
Q 372 2147 372 2553 
Q 372 3047 722 3315 
Q 1072 3584 1716 3584 
Q 2034 3584 2315 3537 
Q 2597 3491 2834 3397 
z
" transform="scale(0.015625)"/>
      <path id="DejaVuSans-70" d="M 1159 525 
L 1159 -1331 
L 581 -1331 
L 581 3500 
L 1159 3500 
L 1159 2969 
Q 1341 3281 1617 3432 
Q 1894 3584 2278 3584 
Q 2916 3584 3314 3078 
Q 3713 2572 3713 1747 
Q 3713 922 3314 415 
Q 2916 -91 2278 -91 
Q 1894 -91 1617 61 
Q 1341 213 1159 525 
z
M 3116 1747 
Q 3116 2381 2855 2742 
Q 2594 3103 2138 3103 
Q 1681 3103 1420 2742 
Q 1159 2381 1159 1747 
Q 1159 1113 1420 752 
Q 1681 391 2138 391 
Q 2594 391 2855 752 
Q 3116 1113 3116 1747 
z
" transform="scale(0.015625)"/>
     </defs>
     <use xlink:href="#DejaVuSans-4c"/>
     <use xlink:href="#DejaVuSans-2d" x="53.962891"/>
     <use xlink:href="#DejaVuSans-41" x="87.796875"/>
     <use xlink:href="#DejaVuSans-73" x="156.205078"/>
     <use xlink:href="#DejaVuSans-70" x="208.304688"/>
     <use xlink:href="#DejaVuSans-61" x="271.78125"/>
     <use xlink:href="#DejaVuSans-72" x="333.060547"/>
     <use xlink:href="#DejaVuSans-74" x="374.173828"/>
     <use xlink:href="#DejaVuSans-69" x="413.382812"/>
     <use xlink:href="#DejaVuSans-63" x="441.166016"/>
     <use xlink:href="#DejaVuSans-5f" x="496.146484"/>
     <use xlink:href="#DejaVuSans-61" x="546.146484"/>
     <use xlink:href="#DejaVuSans-63" x="607.425781"/>
     <use xlink:href="#DejaVuSans-69" x="662.40625"/>
     <use xlink:href="#DejaVuSans-64" x="690.189453"/>
    </g>
   </g>
   <g id="text_5">
    <!-- L-Asparagine -->
    <g transform="translate(119.92557 270.25187) scale(0.08 -0.08)">
     <defs>
      <path id="DejaVuSans-67" d="M 2906 1791 
Q 2906 2416 2648 2759 
Q 2391 3103 1925 3103 
Q 1463 3103 1205 2759 
Q 947 2416 947 1791 
Q 947 1169 1205 825 
Q 1463 481 1925 481 
Q 2391 481 2648 825 
Q 2906 1169 2906 1791 
z
M 3481 434 
Q 3481 -459 3084 -895 
Q 2688 -1331 1869 -1331 
Q 1566 -1331 1297 -1286 
Q 1028 -1241 775 -1147 
L 775 -588 
Q 1028 -725 1275 -790 
Q 1522 -856 1778 -856 
Q 2344 -856 2625 -561 
Q 2906 -266 2906 331 
L 2906 616 
Q 2728 306 2450 153 
Q 2172 0 1784 0 
Q 1141 0 747 490 
Q 353 981 353 1791 
Q 353 2603 747 3093 
Q 1141 3584 1784 3584 
Q 2172 3584 2450 3431 
Q 2728 3278 2906 2969 
L 2906 3500 
L 3481 3500 
L 3481 434 
z
" transform="scale(0.015625)"/>
     </defs>
     <use xlink:href="#DejaVuSans-4c"/>
     <use xlink:href="#DejaVuSans-2d" x="53.962891"/>
     <use xlink:href="#DejaVuSans-41" x="87.796875"/>
     <use xlink:href="#DejaVuSans-73" x="156.205078"/>
     <use xlink:href="#DejaVuSans-70" x="208.304688"/>
     <use xlink:href="#DejaVuSans-61" x="271.78125"/>
     <use xlink:href="#DejaVuSans-72" x="333.060547"/>
     <use xlink:href="#DejaVuSans-61" x="374.173828"/>
     <use xlink:href="#DejaVuSans-67" x="435.453125"/>
     <use xlink:href="#DejaVuSans-69" x="498.929688"/>
     <use xlink:href="#DejaVuSans-6e" x="526.712891"/>
     <use xlink:href="#DejaVuSans-65" x="590.091797"/>
    </g>
   </g>
   <g id="text_6">
    <!-- L-Alanine -->
    <g transform="translate(189.826058 301.819528) scale(0.08 -0.08)">
     <use xlink:href="#DejaVuSans-4c"/>
     <use xlink:href="#DejaVuSans-2d" x="53.962891"/>
     <use xlink:href="#DejaVuSans-41" x="87.796875"/>
     <use xlink:href="#DejaVuSans-6c" x="156.205078"/>
     <use xlink:href="#DejaVuSans-61" x="183.988281"/>
     <use xlink:href="#DejaVuSans-6e" x="245.267578"/>
     <use xlink:href="#DejaVuSans-69" x="308.646484"/>
     <use xlink:href="#DejaVuSans-6e" x="336.429688"/>
     <use xlink:href="#DejaVuSans-65" x="399.808594"/>
    </g>
   </g>
   <g id="text_7">
    <!-- GLUD2 -->
    <g transform="translate(279.479462 304.122542) scale(0.08 -0.08)">
     <defs>
      <path id="DejaVuSans-55" d="M 556 4666 
L 1191 4666 
L 1191 1831 
Q 1191 1081 1462 751 
Q 1734 422 2344 422 
Q 2950 422 3222 751 
Q 3494 1081 3494 1831 
L 3494 4666 
L 4128 4666 
L 4128 1753 
Q 4128 841 3676 375 
Q 3225 -91 2344 -91 
Q 1459 -91 1007 375 
Q 556 841 556 1753 
L 556 4666 
z
" transform="scale(0.015625)"/>
      <path id="DejaVuSans-44" d="M 1259 4147 
L 1259 519 
L 2022 519 
Q 2988 519 3436 956 
Q 3884 1394 3884 2338 
Q 3884 3275 3436 3711 
Q 2988 4147 2022 4147 
L 1259 4147 
z
M 628 4666 
L 1925 4666 
Q 3281 4666 3915 4102 
Q 4550 3538 4550 2338 
Q 4550 1131 3912 565 
Q 3275 0 1925 0 
L 628 0 
L 628 4666 
z
" transform="scale(0.015625)"/>
      <path id="DejaVuSans-32" d="M 1228 531 
L 3431 531 
L 3431 0 
L 469 0 
L 469 531 
Q 828 903 1448 1529 
Q 2069 2156 2228 2338 
Q 2531 2678 2651 2914 
Q 2772 3150 2772 3378 
Q 2772 3750 2511 3984 
Q 2250 4219 1831 4219 
Q 1534 4219 1204 4116 
Q 875 4013 500 3803 
L 500 4441 
Q 881 4594 1212 4672 
Q 1544 4750 1819 4750 
Q 2544 4750 2975 4387 
Q 3406 4025 3406 3419 
Q 3406 3131 3298 2873 
Q 3191 2616 2906 2266 
Q 2828 2175 2409 1742 
Q 1991 1309 1228 531 
z
" transform="scale(0.015625)"/>
     </defs>
     <use xlink:href="#DejaVuSans-47"/>
     <use xlink:href="#DejaVuSans-4c" x="77.490234"/>
     <use xlink:href="#DejaVuSans-55" x="128.203125"/>
     <use xlink:href="#DejaVuSans-44" x="201.396484"/>
     <use xlink:href="#DejaVuSans-32" x="278.398438"/>
    </g>
   </g>
   <g id="text_8">
    <!-- GLUD1 -->
    <g transform="translate(319.283944 289.634919) scale(0.08 -0.08)">
     <defs>
      <path id="DejaVuSans-31" d="M 794 531 
L 1825 531 
L 1825 4091 
L 703 3866 
L 703 4441 
L 1819 4666 
L 2450 4666 
L 2450 531 
L 3481 531 
L 3481 0 
L 794 0 
L 794 531 
z
" transform="scale(0.015625)"/>
     </defs>
     <use xlink:href="#DejaVuSans-47"/>
     <use xlink:href="#DejaVuSans-4c" x="77.490234"/>
     <use xlink:href="#DejaVuSans-55" x="128.203125"/>
     <use xlink:href="#DejaVuSans-44" x="201.396484"/>
     <use xlink:href="#DejaVuSans-31" x="278.398438"/>
    </g>
   </g>
   <g id="text_9">
    <!-- GLS -->
    <g transform="translate(351.732863 262.407073) scale(0.08 -0.08)">
     <defs>
      <path id="DejaVuSans-53" d="M 3425 4513 
L 3425 3897 
Q 3066 4069 2747 4153 
Q 2428 4238 2131 4238 
Q 1616 4238 1336 4038 
Q 1056 3838 1056 3469 
Q 1056 3159 1242 3001 
Q 1428 2844 1947 2747 
L 2328 2669 
Q 3034 2534 3370 2195 
Q 3706 1856 3706 1288 
Q 3706 609 3251 259 
Q 2797 -91 1919 -91 
Q 1588 -91 1214 -16 
Q 841 59 441 206 
L 441 856 
Q 825 641 1194 531 
Q 1563 422 1919 422 
Q 2459 422 2753 634 
Q 3047 847 3047 1241 
Q 3047 1584 2836 1778 
Q 2625 1972 2144 2069 
L 1759 2144 
Q 1053 2284 737 2584 
Q 422 2884 422 3419 
Q 422 4038 858 4394 
Q 1294 4750 2059 4750 
Q 2388 4750 2728 4690 
Q 3069 4631 3425 4513 
z
" transform="scale(0.015625)"/>
     </defs>
     <use xlink:href="#DejaVuSans-47"/>
     <use xlink:href="#DejaVuSans-4c" x="77.490234"/>
     <use xlink:href="#DejaVuSans-53" x="133.203125"/>
    </g>
   </g>
   <g id="text_10">
    <!-- GAD1 -->
    <g transform="translate(372.912404 225.723084) scale(0.08 -0.08)">
     <use xlink:href="#DejaVuSans-47"/>
     <use xlink:href="#DejaVuSans-41" x="77.490234"/>
     <use xlink:href="#DejaVuSans-44" x="145.898438"/>
     <use xlink:href="#DejaVuSans-31" x="222.900391"/>
    </g>
   </g>
   <g id="text_11">
    <!-- ASPA -->
    <g transform="translate(380.268 184.007581) scale(0.08 -0.08)">
     <use xlink:href="#DejaVuSans-41"/>
     <use xlink:href="#DejaVuSans-53" x="68.408203"/>
     <use xlink:href="#DejaVuSans-50" x="131.884766"/>
     <use xlink:href="#DejaVuSans-41" x="185.8125"/>
    </g>
   </g>
   <g id="text_12">
    <!-- ASNS -->
    <g transform="translate(372.912459 142.292069) scale(0.08 -0.08)">
     <defs>
      <path id="DejaVuSans-4e" d="M 628 4666 
L 1478 4666 
L 3547 763 
L 3547 4666 
L 4159 4666 
L 4159 0 
L 3309 0 
L 1241 3903 
L 1241 0 
L 628 0 
L 628 4666 
z
" transform="scale(0.015625)"/>
     </defs>
     <use xlink:href="#DejaVuSans-41"/>
     <use xlink:href="#DejaVuSans-53" x="68.408203"/>
     <use xlink:href="#DejaVuSans-4e" x="131.884766"/>
     <use xlink:href="#DejaVuSans-53" x="206.689453"/>
    </g>
   </g>
   <g id="text_13">
    <!-- ASL -->
    <g transform="translate(351.732968 105.608051) scale(0.08 -0.08)">
     <use xlink:href="#DejaVuSans-41"/>
     <use xlink:href="#DejaVuSans-53" x="68.408203"/>
     <use xlink:href="#DejaVuSans-4c" x="131.884766"/>
    </g>
   </g>
   <g id="text_14">
    <!-- AGXT -->
    <g transform="translate(319.284084 78.380162) scale(0.08 -0.08)">
     <defs>
      <path id="DejaVuSans-58" d="M 403 4666 
L 1081 4666 
L 2241 2931 
L 3406 4666 
L 4084 4666 
L 2584 2425 
L 4184 0 
L 3506 0 
L 2194 1984 
L 872 0 
L 191 0 
L 1856 2491 
L 403 4666 
z
" transform="scale(0.015625)"/>
      <path id="DejaVuSans-54" d="M -19 4666 
L 3928 4666 
L 3928 4134 
L 2272 4134 
L 2272 0 
L 1638 0 
L 1638 4134 
L -19 4134 
L -19 4666 
z
" transform="scale(0.015625)"/>
     </defs>
     <use xlink:href="#DejaVuSans-41"/>
     <use xlink:href="#DejaVuSans-47" x="66.658203"/>
     <use xlink:href="#DejaVuSans-58" x="144.148438"/>
     <use xlink:href="#DejaVuSans-54" x="210.904297"/>
    </g>
   </g>
   <g id="text_15">
    <!-- ADSS1 -->
    <g transform="translate(279.479622 63.892486) scale(0.08 -0.08)">
     <use xlink:href="#DejaVuSans-41"/>
     <use xlink:href="#DejaVuSans-44" x="68.408203"/>
     <use xlink:href="#DejaVuSans-53" x="145.410156"/>
     <use xlink:href="#DejaVuSans-53" x="208.886719"/>
     <use xlink:href="#DejaVuSans-31" x="272.363281"/>
    </g>
   </g>
  </g>
  <g id="axes_2">
   <g id="patch_17">
    <path d="M 258.3 236.1312 
C 272.708803 236.1312 286.529398 230.406522 296.71796 220.21796 
C 306.906522 210.029398 312.6312 196.208803 312.6312 181.8 
C 312.6312 167.391197 306.906522 153.570602 296.71796 143.38204 
C 286.529398 133.193478 272.708803 127.4688 258.3 127.4688 
C 243.891197 127.4688 230.070602 133.193478 219.88204 143.38204 
C 209.693478 153.570602 203.9688 167.391197 203.9688 181.8 
C 203.9688 196.208803 209.693478 210.029398 219.88204 220.21796 
C 230.070602 230.406522 243.891197 236.1312 258.3 236.1312 
z
" clip-path="url(#pbec5798ffe)" style="fill: #1f77b4; stroke: #000000; stroke-width: 1.6; stroke-linejoin: miter"/>
   </g>
   <g id="patch_18">
    <path d="M 258.3 235.24416 
C 272.473557 235.24416 286.06851 229.612946 296.090728 219.590728 
C 306.112946 209.56851 311.74416 195.973557 311.74416 181.8 
C 311.74416 167.626443 306.112946 154.03149 296.090728 144.009272 
C 286.06851 133.987054 272.473557 128.35584 258.3 128.35584 
C 244.126443 128.35584 230.53149 133.987054 220.509272 144.009272 
C 210.487054 154.03149 204.85584 167.626443 204.85584 181.8 
C 204.85584 195.973557 210.487054 209.56851 220.509272 219.590728 
C 230.53149 229.612946 244.126443 235.24416 258.3 235.24416 
z
" clip-path="url(#pbec5798ffe)" style="fill: #ffffff; stroke: #ffffff; stroke-linejoin: miter"/>
   </g>
   <g id="patch_19">
    <path d="M 258.3 136.3392 
C 246.24767 136.3392 234.676644 141.132076 226.15436 149.65436 
C 217.632076 158.176644 212.8392 169.74767 212.8392 181.8 
C 212.8392 193.85233 217.632076 205.423356 226.15436 213.94564 
C 234.676644 222.467924 246.24767 227.2608 258.3 227.2608 
L 258.3 181.8 
C 258.3 181.8 258.3 181.8 258.3 181.8 
C 258.3 181.8 258.3 181.8 258.3 181.8 
C 258.3 181.8 258.3 181.8 258.3 181.8 
C 258.3 181.8 258.3 181.8 258.3 181.8 
z
" style="fill: #eaf3fa; stroke: #000000; stroke-width: 1.2; stroke-linejoin: miter"/>
   </g>
   <g id="patch_20">
    <path d="M 258.3 227.2608 
C 270.35233 227.2608 281.923356 222.467924 290.44564 213.94564 
C 298.967924 205.423356 303.7608 193.85233 303.7608 181.8 
C 303.7608 169.74767 298.967924 158.176644 290.44564 149.65436 
C 281.923356 141.132076 270.35233 136.3392 258.3 136.3392 
L 258.3 181.8 
C 258.3 181.8 258.3 181.8 258.3 181.8 
C 258.3 181.8 258.3 181.8 258.3 181.8 
C 258.3 181.8 258.3 181.8 258.3 181.8 
C 258.3 181.8 258.3 181.8 258.3 181.8 
z
" style="fill: #f8fbfd; stroke: #000000; stroke-width: 1.2; stroke-linejoin: miter"/>
   </g>
   <g id="matplotlib.axis_3"/>
   <g id="matplotlib.axis_4"/>
   <g id="text_16">
    <!-- -0.1 -->
    <g transform="translate(229.696902 184.559375) scale(0.1 -0.1)">
     <defs>
      <path id="DejaVuSans-30" d="M 2034 4250 
Q 1547 4250 1301 3770 
Q 1056 3291 1056 2328 
Q 1056 1369 1301 889 
Q 1547 409 2034 409 
Q 2525 409 2770 889 
Q 3016 1369 3016 2328 
Q 3016 3291 2770 3770 
Q 2525 4250 2034 4250 
z
M 2034 4750 
Q 2819 4750 3233 4129 
Q 3647 3509 3647 2328 
Q 3647 1150 3233 529 
Q 2819 -91 2034 -91 
Q 1250 -91 836 529 
Q 422 1150 422 2328 
Q 422 3509 836 4129 
Q 1250 4750 2034 4750 
z
" transform="scale(0.015625)"/>
      <path id="DejaVuSans-2e" d="M 684 794 
L 1344 794 
L 1344 0 
L 684 0 
L 684 794 
z
" transform="scale(0.015625)"/>
     </defs>
     <use xlink:href="#DejaVuSans-2d"/>
     <use xlink:href="#DejaVuSans-30" x="36.083984"/>
     <use xlink:href="#DejaVuSans-2e" x="99.707031"/>
     <use xlink:href="#DejaVuSans-31" x="131.494141"/>
    </g>
   </g>
   <g id="text_17">
    <!-- -0.1 -->
    <g transform="translate(267.39216 184.559375) scale(0.1 -0.1)">
     <use xlink:href="#DejaVuSans-2d"/>
     <use xlink:href="#DejaVuSans-30" x="36.083984"/>
     <use xlink:href="#DejaVuSans-2e" x="99.707031"/>
     <use xlink:href="#DejaVuSans-31" x="131.494141"/>
    </g>
   </g>
  </g>
  <g id="text_18">
   <!-- L-Cycloserine-T2h-Control-T2h- -DEG_comparison_2 -->
   <g transform="translate(99.879375 16.318125) scale(0.12 -0.12)">
    <defs>
     <path id="DejaVuSans-43" d="M 4122 4306 
L 4122 3641 
Q 3803 3938 3442 4084 
Q 3081 4231 2675 4231 
Q 1875 4231 1450 3742 
Q 1025 3253 1025 2328 
Q 1025 1406 1450 917 
Q 1875 428 2675 428 
Q 3081 428 3442 575 
Q 3803 722 4122 1019 
L 4122 359 
Q 3791 134 3420 21 
Q 3050 -91 2638 -91 
Q 1578 -91 968 557 
Q 359 1206 359 2328 
Q 359 3453 968 4101 
Q 1578 4750 2638 4750 
Q 3056 4750 3426 4639 
Q 3797 4528 4122 4306 
z
" transform="scale(0.015625)"/>
     <path id="DejaVuSans-79" d="M 2059 -325 
Q 1816 -950 1584 -1140 
Q 1353 -1331 966 -1331 
L 506 -1331 
L 506 -850 
L 844 -850 
Q 1081 -850 1212 -737 
Q 1344 -625 1503 -206 
L 1606 56 
L 191 3500 
L 800 3500 
L 1894 763 
L 2988 3500 
L 3597 3500 
L 2059 -325 
z
" transform="scale(0.015625)"/>
     <path id="DejaVuSans-68" d="M 3513 2113 
L 3513 0 
L 2938 0 
L 2938 2094 
Q 2938 2591 2744 2837 
Q 2550 3084 2163 3084 
Q 1697 3084 1428 2787 
Q 1159 2491 1159 1978 
L 1159 0 
L 581 0 
L 581 4863 
L 1159 4863 
L 1159 2956 
Q 1366 3272 1645 3428 
Q 1925 3584 2291 3584 
Q 2894 3584 3203 3211 
Q 3513 2838 3513 2113 
z
" transform="scale(0.015625)"/>
     <path id="DejaVuSans-45" d="M 628 4666 
L 3578 4666 
L 3578 4134 
L 1259 4134 
L 1259 2753 
L 3481 2753 
L 3481 2222 
L 1259 2222 
L 1259 531 
L 3634 531 
L 3634 0 
L 628 0 
L 628 4666 
z
" transform="scale(0.015625)"/>
    </defs>
    <use xlink:href="#DejaVuSans-4c"/>
    <use xlink:href="#DejaVuSans-2d" x="53.962891"/>
    <use xlink:href="#DejaVuSans-43" x="90.046875"/>
    <use xlink:href="#DejaVuSans-79" x="159.871094"/>
    <use xlink:href="#DejaVuSans-63" x="219.050781"/>
    <use xlink:href="#DejaVuSans-6c" x="274.03125"/>
    <use xlink:href="#DejaVuSans-6f" x="301.814453"/>
    <use xlink:href="#DejaVuSans-73" x="362.996094"/>
    <use xlink:href="#DejaVuSans-65" x="415.095703"/>
    <use xlink:href="#DejaVuSans-72" x="476.619141"/>
    <use xlink:href="#DejaVuSans-69" x="517.732422"/>
    <use xlink:href="#DejaVuSans-6e" x="545.515625"/>
    <use xlink:href="#DejaVuSans-65" x="608.894531"/>
    <use xlink:href="#DejaVuSans-2d" x="670.417969"/>
    <use xlink:href="#DejaVuSans-54" x="697.376953"/>
    <use xlink:href="#DejaVuSans-32" x="758.460938"/>
    <use xlink:href="#DejaVuSans-68" x="822.083984"/>
    <use xlink:href="#DejaVuSans-2d" x="885.462891"/>
    <use xlink:href="#DejaVuSans-43" x="921.546875"/>
    <use xlink:href="#DejaVuSans-6f" x="991.371094"/>
    <use xlink:href="#DejaVuSans-6e" x="1052.552734"/>
    <use xlink:href="#DejaVuSans-74" x="1115.931641"/>
    <use xlink:href="#DejaVuSans-72" x="1155.140625"/>
    <use xlink:href="#DejaVuSans-6f" x="1194.003906"/>
    <use xlink:href="#DejaVuSans-6c" x="1255.185547"/>
    <use xlink:href="#DejaVuSans-2d" x="1282.96875"/>
    <use xlink:href="#DejaVuSans-54" x="1309.927734"/>
    <use xlink:href="#DejaVuSans-32" x="1371.011719"/>
    <use xlink:href="#DejaVuSans-68" x="1434.634766"/>
    <use xlink:href="#DejaVuSans-2d" x="1498.013672"/>
    <use xlink:href="#DejaVuSans-2d" x="1534.097656"/>
    <use xlink:href="#DejaVuSans-44" x="1570.181641"/>
    <use xlink:href="#DejaVuSans-45" x="1647.183594"/>
    <use xlink:href="#DejaVuSans-47" x="1710.367188"/>
    <use xlink:href="#DejaVuSans-5f" x="1787.857422"/>
    <use xlink:href="#DejaVuSans-63" x="1837.857422"/>
    <use xlink:href="#DejaVuSans-6f" x="1892.837891"/>
    <use xlink:href="#DejaVuSans-6d" x="1954.019531"/>
    <use xlink:href="#DejaVuSans-70" x="2051.431641"/>
    <use xlink:href="#DejaVuSans-61" x="2114.908203"/>
    <use xlink:href="#DejaVuSans-72" x="2176.1875"/>
    <use xlink:href="#DejaVuSans-69" x="2217.300781"/>
    <use xlink:href="#DejaVuSans-73" x="2245.083984"/>
    <use xlink:href="#DejaVuSans-6f" x="2297.183594"/>
    <use xlink:href="#DejaVuSans-6e" x="2358.365234"/>
    <use xlink:href="#DejaVuSans-5f" x="2421.744141"/>
    <use xlink:href="#DejaVuSans-32" x="2471.744141"/>
   </g>
   <!-- AMINOACIDS -->
   <g transform="translate(213.45375 30.08925) scale(0.12 -0.12)">
    <defs>
     <path id="DejaVuSans-4d" d="M 628 4666 
L 1569 4666 
L 2759 1491 
L 3956 4666 
L 4897 4666 
L 4897 0 
L 4281 0 
L 4281 4097 
L 3078 897 
L 2444 897 
L 1241 4097 
L 1241 0 
L 628 0 
L 628 4666 
z
" transform="scale(0.015625)"/>
     <path id="DejaVuSans-49" d="M 628 4666 
L 1259 4666 
L 1259 0 
L 628 0 
L 628 4666 
z
" transform="scale(0.015625)"/>
     <path id="DejaVuSans-4f" d="M 2522 4238 
Q 1834 4238 1429 3725 
Q 1025 3213 1025 2328 
Q 1025 1447 1429 934 
Q 1834 422 2522 422 
Q 3209 422 3611 934 
Q 4013 1447 4013 2328 
Q 4013 3213 3611 3725 
Q 3209 4238 2522 4238 
z
M 2522 4750 
Q 3503 4750 4090 4092 
Q 4678 3434 4678 2328 
Q 4678 1225 4090 567 
Q 3503 -91 2522 -91 
Q 1538 -91 948 565 
Q 359 1222 359 2328 
Q 359 3434 948 4092 
Q 1538 4750 2522 4750 
z
" transform="scale(0.015625)"/>
    </defs>
    <use xlink:href="#DejaVuSans-41"/>
    <use xlink:href="#DejaVuSans-4d" x="68.408203"/>
    <use xlink:href="#DejaVuSans-49" x="154.6875"/>
    <use xlink:href="#DejaVuSans-4e" x="184.179688"/>
    <use xlink:href="#DejaVuSans-4f" x="258.984375"/>
    <use xlink:href="#DejaVuSans-41" x="335.945312"/>
    <use xlink:href="#DejaVuSans-43" x="402.603516"/>
    <use xlink:href="#DejaVuSans-49" x="472.427734"/>
    <use xlink:href="#DejaVuSans-44" x="501.919922"/>
    <use xlink:href="#DejaVuSans-53" x="578.921875"/>
   </g>
  </g>
 </g>
 <defs>
  <clipPath id="pbec5798ffe">
   <rect x="119.7" y="43.2" width="277.2" height="277.2"/>
  </clipPath>
 </defs>
</svg>
